<svg 
 xmlns="http://www.w3.org/2000/svg"
 xmlns:xlink="http://www.w3.org/1999/xlink"
 width="105px" height="99px">
<path fill-rule="evenodd"  fill="rgb(243, 75, 88)"
 d="M16.956,64.408 L19.047,64.408 C27.883,64.407 35.046,71.569 35.045,80.406 L35.044,82.393 C35.043,91.230 27.879,98.394 19.042,98.395 L16.951,98.396 C8.115,98.397 0.952,91.234 0.953,82.398 L0.954,80.410 C0.955,71.573 8.119,64.409 16.956,64.408 Z"/>
<path fill-rule="evenodd"  fill="rgb(243, 75, 88)"
 d="M85.956,0.408 L88.047,0.408 C96.883,0.407 104.046,7.569 104.045,16.406 L104.044,18.394 C104.043,27.230 96.879,34.394 88.042,34.395 L85.951,34.396 C77.115,34.397 69.952,27.234 69.953,18.398 L69.954,16.410 C69.955,7.573 77.119,0.409 85.956,0.408 Z"/>
<path fill-rule="evenodd"  fill="rgb(254, 244, 245)"
 d="M20.1000,6.1000 L82.1000,6.1000 C90.732,6.1000 96.1000,13.268 96.1000,20.1000 L96.1000,77.1000 C96.1000,85.732 90.732,91.1000 82.1000,91.1000 L20.1000,91.1000 C13.268,91.1000 6.1000,85.732 6.1000,77.1000 L6.1000,20.1000 C6.1000,13.268 13.268,6.1000 20.1000,6.1000 Z"/>
</svg>